<svg xmlns="http://www.w3.org/2000/svg" viewBox="0 0 72 72" fill="none">
  <defs>
    <linearGradient id="foG" x1="8" y1="8" x2="64" y2="64" gradientUnits="userSpaceOnUse">
      <stop stop-color="#22c55e"/>
      <stop offset="1" stop-color="#15803d"/>
    </linearGradient>
    <linearGradient id="foH" x1="36" y1="14" x2="36" y2="58" gradientUnits="userSpaceOnUse">
      <stop stop-color="#ecfdf5" stop-opacity="0.95"/>
      <stop offset="1" stop-color="#d1fae5" stop-opacity="0.85"/>
    </linearGradient>
  </defs>
  <rect x="4" y="4" width="64" height="64" rx="16" fill="url(#foG)"/>
  <!-- calendar sheet -->
  <rect x="18" y="20" width="36" height="36" rx="6" fill="url(#foH)" stroke="#fff" stroke-width="1.5" opacity="0.95"/>
  <rect x="18" y="20" width="36" height="10" rx="6" fill="#fff" fill-opacity="0.35"/>
  <line x1="22" y1="34" x2="50" y2="34" stroke="#15803d" stroke-width="1.2" stroke-opacity="0.35"/>
  <!-- leaf accent -->
  <path d="M36 38c-4 0-7 3-8 7 2-2 5-3 8-3s6 1 8 3c-1-4-4-7-8-7z" fill="#15803d" fill-opacity="0.55"/>
  <path d="M36 36c2-6 8-9 12-10-1 5-4 9-8 11-2-1-3-1-4-1z" fill="#16a34a" fill-opacity="0.85"/>
  <!-- grid dots (week) -->
  <circle cx="26" cy="44" r="2.2" fill="#15803d" fill-opacity="0.45"/>
  <circle cx="36" cy="44" r="2.2" fill="#15803d" fill-opacity="0.45"/>
  <circle cx="46" cy="44" r="2.2" fill="#15803d" fill-opacity="0.45"/>
  <circle cx="26" cy="52" r="2.2" fill="#15803d" fill-opacity="0.25"/>
  <circle cx="36" cy="52" r="2.2" fill="#15803d" fill-opacity="0.25"/>
  <circle cx="46" cy="52" r="2.2" fill="#15803d" fill-opacity="0.25"/>
</svg>
